<svg width="48" height="48" viewBox="0 0 48 48" fill="none" xmlns="http://www.w3.org/2000/svg">
<path d="M32.3627 30.462L32.4827 30.5833C32.9979 31.1058 33.653 31.4686 34.3693 31.628L35.5227 31.8853C35.7102 31.927 35.8869 32.0073 36.0417 32.121C36.1965 32.2348 36.3259 32.3795 36.4217 32.546C36.5174 32.7125 36.5775 32.8972 36.5979 33.0882C36.6184 33.2791 36.5989 33.4723 36.5407 33.6553L36.3093 34.3827C36.1976 34.734 36.1829 35.109 36.2667 35.468L36.4387 36.2053C36.4642 36.3147 36.5122 36.4175 36.5795 36.5074C36.6468 36.5972 36.732 36.6721 36.8297 36.7274C36.9274 36.7827 37.0356 36.817 37.1473 36.8284C37.259 36.8397 37.3718 36.8278 37.4787 36.7933C37.8839 36.6623 38.222 36.3781 38.4207 36.0013L39.4273 34.0907C39.7155 33.5444 39.9538 32.9732 40.1393 32.384L40.3213 31.8053C40.5031 31.221 40.5283 30.5993 40.3944 30.0021C40.2606 29.405 39.9724 28.8535 39.5587 28.4027C38.33 27.0527 37.68 25.486 37.0253 23.8487C36.9959 23.7751 36.9477 23.7105 36.8856 23.6613C36.8235 23.6121 36.7496 23.5799 36.6712 23.5681C36.5929 23.5562 36.5128 23.565 36.4389 23.5937C36.365 23.6223 36.2999 23.6698 36.25 23.7313L32.2747 28.632C32.0616 28.8945 31.9529 29.2263 31.9692 29.5639C31.9856 29.9016 32.1252 30.2214 32.3627 30.462ZM20.1947 29.0667L19.4207 31.088L18.4847 35.5433C18.4064 35.9148 18.2301 36.2585 17.974 36.5387C17.774 36.7578 17.5133 36.9122 17.225 36.9823C16.9368 37.0524 16.6342 37.0349 16.356 36.932C16.0528 36.8198 15.7887 36.6219 15.5957 36.3626C15.4027 36.1032 15.2891 35.7933 15.2687 35.4707L15.1153 33.0547C15.1153 33.0547 15.4487 30.0473 15.782 28.69C15.9847 27.8647 17.2553 27.46 18.22 27.2693C18.5403 27.2079 18.8717 27.2452 19.1704 27.3764C19.469 27.5076 19.7206 27.7265 19.892 28.004L20.1947 29.0667Z" fill="#E27022"/>
<path d="M44.76 11.02L43.502 10.63C42.7453 10.536 42.352 10.536 41.6353 10.796L41.0073 11.0627C40.2367 11.342 39.886 12.408 39.762 13.218C39.6613 13.876 39.814 14.5053 39.7227 15.12C39.5213 16.4742 38.8687 17.7208 37.8707 18.658L37.7607 18.762C37.0747 19.4069 36.2048 19.8222 35.272 19.95L33.7367 20.16C32.8043 20.2879 31.8546 20.1591 30.99 19.7873L30.3473 19.5107C29.1498 18.9957 27.8747 18.6839 26.5747 18.588L19.872 18.0933C18.7523 18.0107 17.6266 18.0762 16.524 18.288L16.088 18.372C14.6564 18.6471 13.1752 18.4828 11.8387 17.9007L10.712 17.41C10.0217 17.1093 9.3592 16.7486 8.73201 16.332L7.09667 15.8167C6.88201 15.674 5.57667 15.7033 5.57667 15.7033C4.94667 15.832 4.70934 16.1307 5.00201 16.7027L5.33001 17.3427C5.48801 17.652 5.46934 18.0227 5.27934 18.314L4.05801 20.192C3.84153 20.5247 3.69359 20.8972 3.62284 21.2878C3.5521 21.6784 3.55997 22.0792 3.64601 22.4667C3.74567 22.9173 3.99112 23.3226 4.34436 23.6196C4.6976 23.9167 5.13892 24.0891 5.60001 24.11C6.31067 24.142 7.14401 24.1987 7.85267 24.298C8.40451 24.372 8.96605 24.3123 9.49001 24.124L9.51867 24.114C10.1053 23.9073 10.7413 24.2887 10.8053 24.9027C10.8967 25.768 11.2273 26.632 11.5647 27.446C11.6549 27.6674 11.6601 27.9143 11.5794 28.1394C11.4987 28.3644 11.3377 28.5517 11.1273 28.6653C9.70867 29.4467 8.90267 30.2 8.42534 31.356C8.31867 31.616 8.22801 32.038 8.15134 32.5093C7.95934 33.6833 7.45801 34.518 8.41601 35.224L9.00267 35.5227C9.25067 35.7053 9.98201 35.8133 10.2747 35.7173C10.9147 35.5073 11.8833 34.9173 11.4893 33.298C11.4481 33.1336 11.4503 32.9613 11.4958 32.798C11.5413 32.6347 11.6284 32.4861 11.7487 32.3667L12.4847 31.648C12.9742 31.1708 13.536 30.7739 14.1493 30.472C14.7446 30.1795 15.3422 29.8917 15.942 29.6087C16.0867 29.5407 16.242 29.5107 16.402 29.5187L25.4107 29.97C25.676 29.9833 25.924 30.1053 26.0973 30.3067L27.3547 31.768C27.5447 31.9887 27.6253 32.284 27.5747 32.5707L26.996 35.8073C26.9575 36.0222 26.9926 36.2438 27.0956 36.4362C27.1986 36.6287 27.3635 36.7808 27.5636 36.8679C27.7638 36.955 27.9875 36.9721 28.1985 36.9163C28.4096 36.8606 28.5957 36.7353 28.7267 36.5607L31.5353 32.824C31.662 32.656 31.73 32.4507 31.73 32.2413V30.6027C31.73 30.3693 31.8127 30.146 31.9653 29.9693C32.7313 29.08 35.1407 26.1873 35.744 24.314L35.752 24.3253C35.752 24.3253 39.6227 22.3227 41.1053 19.3087C43.5033 15.9393 40.6533 12.6587 44.064 13.7673C44.9233 14.0467 45.986 12.3113 44.944 11.2273L44.7553 11.02H44.76Z" fill="#F4AA41"/>
<path d="M8.30667 23.8267C6.75134 24.4933 5.02867 24.382 5.02867 24.382C3.91067 24.4793 2.952 21.7087 3.372 21.2267L5.584 17.8267L4.41733 15.5487C4.41733 15.5487 7.756 14.6053 9.67267 16.942C9.902 17.222 10.202 17.4373 10.5253 17.6L10.586 17.6307C12.3147 18.49 14.2833 18.678 16.176 18.296C20.9907 17.324 25.556 17.3827 30.6427 19.7707C35.726 22.1593 40.3293 18.2707 39.736 14.7707C39.2073 11.6727 42.1107 9.71533 44.236 11.4373M10.7 32.5467C11.1 31.076 16.3607 30.1147 16.3607 30.1147C16.3607 30.1147 18.5127 29.314 17.3113 27.112" stroke="black" stroke-width="2" stroke-linecap="round" stroke-linejoin="round"/>
<path d="M12.2 22.16C11.1713 23.3827 9.60467 25.362 11.9067 28.2653C11.9067 28.2653 7.40267 30.1673 7.90267 33.6207C7.90267 33.6207 8.144 35.2713 9.504 35.222M15.6667 33.3533C14.896 38.1893 17.2573 37.39 17.678 37.1273C18.4433 36.6493 18.91 30.558 20.3127 29.5873C21.374 28.8513 25.7573 29.386 25.7573 29.386M25.6267 27.5533C25.6873 28.7147 26.1287 29.8213 26.7827 30.7833C27.224 31.432 27.9847 32.33 27.7513 32.7733C24.7653 38.44 28.166 37.4547 28.4733 36.8847C30.5987 32.94 32.5567 34.1487 31.5713 29.8713C31.5713 29.8713 35.0847 28.6647 35.2513 24.5533" stroke="black" stroke-width="2" stroke-linecap="round" stroke-linejoin="round"/>
<path d="M32.1 30.3933C32.1 30.3933 33.678 32.5293 37.272 32.1887C37.272 32.1887 35.0547 36.6967 37.272 37.2687C38.55 37.598 40.42 29.8287 40.42 29.8287C40.42 29.8287 39.194 29.2993 37.786 27.0407" stroke="black" stroke-width="2" stroke-linecap="round" stroke-linejoin="round"/>
</svg>
