<svg width="140" height="51" viewBox="0 0 140 51" fill="none" xmlns="http://www.w3.org/2000/svg">
<g clip-path="url(#clip0_7_395)">
<path d="M124.363 23.462L124.483 23.5833C124.998 24.1058 125.653 24.4686 126.369 24.628L127.523 24.8853C127.71 24.927 127.887 25.0073 128.042 25.121C128.197 25.2348 128.326 25.3795 128.422 25.546C128.517 25.7125 128.577 25.8972 128.598 26.0882C128.618 26.2791 128.599 26.4723 128.541 26.6553L128.309 27.3827C128.198 27.734 128.183 28.109 128.267 28.468L128.439 29.2053C128.464 29.3147 128.512 29.4175 128.579 29.5074C128.647 29.5972 128.732 29.6721 128.83 29.7274C128.927 29.7827 129.036 29.817 129.147 29.8284C129.259 29.8397 129.372 29.8278 129.479 29.7933C129.884 29.6623 130.222 29.3781 130.421 29.0013L131.427 27.0907C131.716 26.5444 131.954 25.9731 132.139 25.384L132.321 24.8053C132.503 24.221 132.528 23.5992 132.394 23.0021C132.261 22.405 131.972 21.8535 131.559 21.4027C130.33 20.0527 129.68 18.486 129.025 16.8487C128.996 16.7751 128.948 16.7105 128.886 16.6613C128.824 16.6121 128.75 16.5799 128.671 16.5681C128.593 16.5562 128.513 16.565 128.439 16.5937C128.365 16.6223 128.3 16.6698 128.25 16.7313L124.275 21.632C124.062 21.8945 123.953 22.2263 123.969 22.5639C123.986 22.9016 124.125 23.2214 124.363 23.462ZM112.195 22.0667L111.421 24.088L110.485 28.5433C110.406 28.9148 110.23 29.2585 109.974 29.5387C109.774 29.7578 109.513 29.9122 109.225 29.9823C108.937 30.0524 108.634 30.0349 108.356 29.932C108.053 29.8198 107.789 29.6219 107.596 29.3625C107.403 29.1032 107.289 28.7933 107.269 28.4707L107.115 26.0547C107.115 26.0547 107.449 23.0473 107.782 21.69C107.985 20.8647 109.255 20.46 110.22 20.2693C110.54 20.2079 110.872 20.2452 111.17 20.3764C111.469 20.5076 111.721 20.7265 111.892 21.004L112.195 22.0667Z" fill="#E27022"/>
<path d="M136.76 4.02L135.502 3.63C134.745 3.536 134.352 3.536 133.635 3.796L133.007 4.06267C132.237 4.342 131.886 5.408 131.762 6.218C131.661 6.876 131.814 7.50533 131.723 8.12C131.521 9.47421 130.869 10.7208 129.871 11.658L129.761 11.762C129.075 12.4069 128.205 12.8222 127.272 12.95L125.737 13.16C124.804 13.2879 123.855 13.1591 122.99 12.7873L122.347 12.5107C121.15 11.9957 119.875 11.6839 118.575 11.588L111.872 11.0933C110.752 11.0107 109.627 11.0762 108.524 11.288L108.088 11.372C106.656 11.6471 105.175 11.4828 103.839 10.9007L102.712 10.41C102.022 10.1093 101.359 9.74857 100.732 9.332L99.0967 8.81667C98.882 8.674 97.5767 8.70333 97.5767 8.70333C96.9467 8.832 96.7093 9.13067 97.002 9.70267L97.33 10.3427C97.488 10.652 97.4693 11.0227 97.2793 11.314L96.058 13.192C95.8415 13.5247 95.6936 13.8972 95.6228 14.2878C95.5521 14.6784 95.56 15.0792 95.646 15.4667C95.7457 15.9173 95.9911 16.3226 96.3444 16.6197C96.6976 16.9167 97.1389 17.0891 97.6 17.11C98.3107 17.142 99.144 17.1987 99.8527 17.298C100.405 17.372 100.966 17.3123 101.49 17.124L101.519 17.114C102.105 16.9073 102.741 17.2887 102.805 17.9027C102.897 18.768 103.227 19.632 103.565 20.446C103.655 20.6674 103.66 20.9143 103.579 21.1394C103.499 21.3644 103.338 21.5517 103.127 21.6653C101.709 22.4467 100.903 23.2 100.425 24.356C100.319 24.616 100.228 25.038 100.151 25.5093C99.9593 26.6833 99.458 27.518 100.416 28.224L101.003 28.5227C101.251 28.7053 101.982 28.8133 102.275 28.7173C102.915 28.5073 103.883 27.9173 103.489 26.298C103.448 26.1336 103.45 25.9613 103.496 25.798C103.541 25.6347 103.628 25.4861 103.749 25.3667L104.485 24.648C104.974 24.1708 105.536 23.7739 106.149 23.472C106.745 23.1795 107.342 22.8917 107.942 22.6087C108.087 22.5407 108.242 22.5107 108.402 22.5187L117.411 22.97C117.676 22.9833 117.924 23.1053 118.097 23.3067L119.355 24.768C119.545 24.9887 119.625 25.284 119.575 25.5707L118.996 28.8073C118.957 29.0222 118.993 29.2438 119.096 29.4362C119.199 29.6287 119.363 29.7808 119.564 29.8679C119.764 29.955 119.987 29.9721 120.199 29.9163C120.41 29.8606 120.596 29.7353 120.727 29.5607L123.535 25.824C123.662 25.656 123.73 25.4507 123.73 25.2413V23.6027C123.73 23.3693 123.813 23.146 123.965 22.9693C124.731 22.08 127.141 19.1873 127.744 17.314L127.752 17.3253C127.752 17.3253 131.623 15.3227 133.105 12.3087C135.503 8.93933 132.653 5.65867 136.064 6.76733C136.923 7.04667 137.986 5.31133 136.944 4.22733L136.755 4.02H136.76Z" fill="#F4AA41"/>
<path d="M100.307 16.8267C98.7513 17.4933 97.0287 17.382 97.0287 17.382C95.9107 17.4793 94.952 14.7087 95.372 14.2267L97.584 10.8267L96.4173 8.54867C96.4173 8.54867 99.756 7.60533 101.673 9.942C101.902 10.222 102.202 10.4373 102.525 10.6L102.586 10.6307C104.315 11.49 106.283 11.678 108.176 11.296C112.991 10.324 117.556 10.3827 122.643 12.7707C127.726 15.1593 132.329 11.2707 131.736 7.77067C131.207 4.67267 134.111 2.71533 136.236 4.43733M102.7 25.5467C103.1 24.076 108.361 23.1147 108.361 23.1147C108.361 23.1147 110.513 22.314 109.311 20.112" stroke="black" stroke-width="2" stroke-linecap="round" stroke-linejoin="round"/>
<path d="M104.2 15.16C103.171 16.3827 101.605 18.362 103.907 21.2653C103.907 21.2653 99.4027 23.1673 99.9027 26.6207C99.9027 26.6207 100.144 28.2713 101.504 28.222M107.667 26.3533C106.896 31.1893 109.257 30.39 109.678 30.1273C110.443 29.6493 110.91 23.558 112.313 22.5873C113.374 21.8513 117.757 22.386 117.757 22.386M117.627 20.5533C117.687 21.7147 118.129 22.8213 118.783 23.7833C119.224 24.432 119.985 25.33 119.751 25.7733C116.765 31.44 120.166 30.4547 120.473 29.8847C122.599 25.94 124.557 27.1487 123.571 22.8713C123.571 22.8713 127.085 21.6647 127.251 17.5533" stroke="black" stroke-width="2" stroke-linecap="round" stroke-linejoin="round"/>
<path d="M124.1 23.3933C124.1 23.3933 125.678 25.5293 129.272 25.1887C129.272 25.1887 127.055 29.6967 129.272 30.2687C130.55 30.598 132.42 22.8287 132.42 22.8287C132.42 22.8287 131.194 22.2993 129.786 20.0407" stroke="black" stroke-width="2" stroke-linecap="round" stroke-linejoin="round"/>
<path d="M17.614 29.206C17.614 29.542 17.59 29.818 17.542 30.034C17.494 30.25 17.404 30.418 17.272 30.538C17.152 30.67 16.99 30.76 16.786 30.808C16.582 30.868 16.324 30.898 16.012 30.898H9.154C8.83 30.898 8.56 30.868 8.344 30.808C8.128 30.76 7.954 30.664 7.822 30.52C7.702 30.388 7.618 30.208 7.57 29.98C7.522 29.764 7.498 29.488 7.498 29.152V21.322C7.498 20.974 7.522 20.692 7.57 20.476C7.618 20.248 7.702 20.074 7.822 19.954C7.954 19.822 8.128 19.732 8.344 19.684C8.56 19.636 8.83 19.612 9.154 19.612H16.012C16.324 19.612 16.582 19.642 16.786 19.702C16.99 19.75 17.152 19.84 17.272 19.972C17.404 20.104 17.494 20.278 17.542 20.494C17.59 20.71 17.614 20.986 17.614 21.322V29.206ZM6.652 28.396C6.652 28.708 6.628 28.966 6.58 29.17C6.532 29.374 6.448 29.53 6.328 29.638C6.208 29.758 6.052 29.836 5.86 29.872C5.68 29.92 5.458 29.944 5.194 29.944H3.484C3.196 29.944 2.956 29.92 2.764 29.872C2.584 29.824 2.44 29.74 2.332 29.62C2.224 29.5 2.152 29.338 2.116 29.134C2.08 28.942 2.062 28.696 2.062 28.396V16.318C2.062 16.006 2.08 15.754 2.116 15.562C2.164 15.358 2.242 15.202 2.35 15.094C2.458 14.986 2.602 14.914 2.782 14.878C2.974 14.83 3.208 14.806 3.484 14.806H5.194C5.734 14.806 6.112 14.914 6.328 15.13C6.544 15.334 6.652 15.73 6.652 16.318V28.396ZM5.338 16.444C5.338 16.228 5.248 16.12 5.068 16.12H3.628C3.46 16.12 3.376 16.228 3.376 16.444V28.252C3.376 28.492 3.46 28.612 3.628 28.612H5.068C5.164 28.612 5.23 28.588 5.266 28.54C5.314 28.492 5.338 28.396 5.338 28.252V16.444ZM7.534 17.542C7.282 17.542 7.108 17.482 7.012 17.362C6.928 17.242 6.886 17.08 6.886 16.876C6.886 16.648 6.922 16.48 6.994 16.372C7.078 16.252 7.258 16.192 7.534 16.192H9.28V14.626C9.28 14.386 9.34 14.218 9.46 14.122C9.592 14.014 9.754 13.96 9.946 13.96C10.15 13.96 10.312 14.014 10.432 14.122C10.564 14.218 10.63 14.386 10.63 14.626V16.192H11.836C12.1 16.192 12.274 16.252 12.358 16.372C12.454 16.48 12.502 16.648 12.502 16.876C12.502 17.08 12.448 17.242 12.34 17.362C12.244 17.482 12.076 17.542 11.836 17.542H10.63V18.892C10.63 19.132 10.564 19.306 10.432 19.414C10.312 19.51 10.15 19.558 9.946 19.558C9.754 19.558 9.592 19.51 9.46 19.414C9.34 19.306 9.28 19.132 9.28 18.892V17.542H7.534ZM13.672 17.542C13.42 17.542 13.246 17.482 13.15 17.362C13.066 17.242 13.024 17.08 13.024 16.876C13.024 16.648 13.06 16.48 13.132 16.372C13.216 16.252 13.396 16.192 13.672 16.192H14.734V14.608C14.734 14.368 14.794 14.2 14.914 14.104C15.046 13.996 15.208 13.942 15.4 13.942C15.604 13.942 15.766 13.996 15.886 14.104C16.018 14.2 16.084 14.368 16.084 14.608V16.192H17.884C18.148 16.192 18.322 16.252 18.406 16.372C18.502 16.48 18.55 16.648 18.55 16.876C18.55 17.08 18.496 17.242 18.388 17.362C18.292 17.482 18.124 17.542 17.884 17.542H16.084V18.892C16.084 19.132 16.018 19.306 15.886 19.414C15.766 19.51 15.604 19.558 15.4 19.558C15.208 19.558 15.046 19.51 14.914 19.414C14.794 19.306 14.734 19.132 14.734 18.892V17.542H13.672ZM8.866 25.804V29.242C8.866 29.458 8.944 29.566 9.1 29.566H11.89V25.804H8.866ZM16.246 25.804H13.258V29.566H16.03C16.174 29.566 16.246 29.458 16.246 29.242V25.804ZM11.89 20.944H9.1C8.944 20.944 8.866 21.052 8.866 21.268V24.49H11.89V20.944ZM16.246 21.268C16.246 21.052 16.174 20.944 16.03 20.944H13.258V24.49H16.246V21.268ZM22.852 21.61C22.312 21.61 21.928 21.49 21.7 21.25C21.484 20.998 21.376 20.602 21.376 20.062V16.318C21.376 15.778 21.484 15.394 21.7 15.166C21.928 14.926 22.312 14.806 22.852 14.806H33.076C33.616 14.806 34 14.926 34.228 15.166C34.456 15.394 34.57 15.778 34.57 16.318V20.062C34.57 20.602 34.456 20.998 34.228 21.25C34 21.49 33.616 21.61 33.076 21.61H22.852ZM21.61 26.164C21.082 26.668 20.656 26.722 20.332 26.326C20.176 26.134 20.128 25.948 20.188 25.768C20.248 25.576 20.416 25.36 20.692 25.12C21.04 24.82 21.376 24.472 21.7 24.076C22.024 23.668 22.342 23.17 22.654 22.582C22.822 22.258 22.99 22.06 23.158 21.988C23.326 21.904 23.512 21.916 23.716 22.024C23.896 22.132 24.01 22.276 24.058 22.456C24.106 22.624 24.028 22.9 23.824 23.284H27.73V22.618C27.73 22.078 27.97 21.808 28.45 21.808C28.894 21.808 29.116 22.078 29.116 22.618V23.284H34.876C35.116 23.284 35.296 23.35 35.416 23.482C35.536 23.614 35.596 23.782 35.596 23.986C35.596 24.442 35.356 24.67 34.876 24.67H29.116V26.182H34.444C34.912 26.182 35.146 26.416 35.146 26.884C35.146 27.088 35.086 27.256 34.966 27.388C34.846 27.508 34.672 27.568 34.444 27.568H29.116V29.404H35.686C36.178 29.404 36.424 29.638 36.424 30.106C36.424 30.562 36.178 30.79 35.686 30.79H20.44C19.96 30.79 19.72 30.562 19.72 30.106C19.72 29.638 19.96 29.404 20.44 29.404H27.73V27.568H22.24C22 27.568 21.814 27.508 21.682 27.388C21.562 27.256 21.502 27.088 21.502 26.884C21.502 26.416 21.748 26.182 22.24 26.182H27.73V24.67H22.924C22.72 24.946 22.504 25.21 22.276 25.462C22.06 25.714 21.838 25.948 21.61 26.164ZM33.184 16.516C33.184 16.42 33.166 16.342 33.13 16.282C33.094 16.222 33.034 16.192 32.95 16.192H22.978C22.834 16.192 22.762 16.3 22.762 16.516V17.542H33.184V16.516ZM33.184 18.928H22.762V19.882C22.762 20.11 22.834 20.224 22.978 20.224H32.95C33.106 20.224 33.184 20.11 33.184 19.882V18.928ZM46.9 15.184C46.9 15.568 46.882 16 46.846 16.48C46.822 16.948 46.786 17.41 46.738 17.866C47.326 20.554 48.244 22.858 49.492 24.778C50.752 26.698 52.264 28.27 54.028 29.494C54.232 29.638 54.388 29.764 54.496 29.872C54.604 29.992 54.676 30.1 54.712 30.196C54.748 30.292 54.748 30.388 54.712 30.484C54.676 30.58 54.616 30.688 54.532 30.808C54.364 31.048 54.184 31.15 53.992 31.114C53.8 31.078 53.512 30.922 53.128 30.646C51.412 29.422 49.984 28.012 48.844 26.416C47.704 24.808 46.798 23.038 46.126 21.106C45.562 23.062 44.656 24.88 43.408 26.56C42.16 28.24 40.57 29.68 38.638 30.88C38.266 31.12 37.984 31.228 37.792 31.204C37.6 31.18 37.438 31.048 37.306 30.808C37.174 30.568 37.156 30.358 37.252 30.178C37.348 30.01 37.552 29.83 37.864 29.638C38.956 29.002 39.982 28.18 40.942 27.172C41.902 26.164 42.724 25.03 43.408 23.77C44.104 22.51 44.632 21.154 44.992 19.702C45.364 18.238 45.502 16.744 45.406 15.22C45.382 14.884 45.43 14.626 45.55 14.446C45.682 14.266 45.886 14.188 46.162 14.212C46.438 14.236 46.63 14.32 46.738 14.464C46.846 14.596 46.9 14.836 46.9 15.184ZM63.046 23.914C62.77 23.914 62.536 23.896 62.344 23.86C62.164 23.812 62.02 23.734 61.912 23.626C61.804 23.518 61.726 23.374 61.678 23.194C61.642 23.014 61.624 22.786 61.624 22.51V17.182C61.624 16.894 61.642 16.654 61.678 16.462C61.726 16.27 61.804 16.114 61.912 15.994C62.02 15.874 62.164 15.79 62.344 15.742C62.536 15.694 62.77 15.67 63.046 15.67H63.298C63.37 15.418 63.43 15.16 63.478 14.896C63.514 14.572 63.574 14.35 63.658 14.23C63.754 14.098 63.94 14.05 64.216 14.086C64.504 14.122 64.672 14.218 64.72 14.374C64.78 14.518 64.786 14.746 64.738 15.058C64.714 15.13 64.684 15.22 64.648 15.328C64.624 15.424 64.594 15.538 64.558 15.67H64.828C65.38 15.67 65.77 15.778 65.998 15.994C66.226 16.21 66.34 16.606 66.34 17.182V22.366C66.34 22.942 66.226 23.344 65.998 23.572C65.77 23.8 65.38 23.914 64.828 23.914H63.982C64.162 23.926 64.306 23.98 64.414 24.076C64.522 24.16 64.576 24.316 64.576 24.544V25.066H71.506C71.746 25.066 71.914 25.126 72.01 25.246C72.106 25.354 72.154 25.516 72.154 25.732C72.154 26.14 71.938 26.344 71.506 26.344H64.576V30.52C64.576 30.76 64.51 30.928 64.378 31.024C64.258 31.12 64.096 31.168 63.892 31.168C63.652 31.168 63.478 31.12 63.37 31.024C63.262 30.94 63.208 30.772 63.208 30.52V26.344H56.44C56.02 26.344 55.81 26.14 55.81 25.732C55.81 25.516 55.852 25.354 55.936 25.246C56.032 25.126 56.2 25.066 56.44 25.066H63.208V24.544C63.208 24.304 63.25 24.142 63.334 24.058C63.418 23.974 63.556 23.926 63.748 23.914H63.046ZM70.048 21.214C69.904 20.986 69.844 20.812 69.868 20.692C69.892 20.56 69.982 20.446 70.138 20.35C70.27 20.254 70.426 20.218 70.606 20.242C70.786 20.266 70.96 20.404 71.128 20.656C71.344 21.004 71.542 21.352 71.722 21.7C71.914 22.048 72.082 22.414 72.226 22.798C72.298 23.002 72.316 23.188 72.28 23.356C72.244 23.524 72.13 23.656 71.938 23.752C71.734 23.848 71.566 23.854 71.434 23.77C71.302 23.686 71.188 23.524 71.092 23.284C71.068 23.224 71.044 23.17 71.02 23.122C70.996 23.074 70.972 23.02 70.948 22.96C70.336 23.056 69.748 23.134 69.184 23.194C68.632 23.254 68.086 23.308 67.546 23.356C67.21 23.392 66.958 23.356 66.79 23.248C66.622 23.128 66.538 22.954 66.538 22.726C66.538 22.462 66.658 22.192 66.898 21.916C67.246 21.544 67.564 21.19 67.852 20.854C68.14 20.506 68.41 20.176 68.662 19.864C68.494 19.888 68.32 19.906 68.14 19.918C67.972 19.918 67.786 19.924 67.582 19.936C67.282 19.948 67.036 19.888 66.844 19.756C66.652 19.624 66.556 19.438 66.556 19.198C66.556 19.066 66.58 18.928 66.628 18.784C66.676 18.628 66.76 18.484 66.88 18.352C67.096 18.1 67.294 17.854 67.474 17.614C67.666 17.374 67.852 17.134 68.032 16.894C68.212 16.642 68.386 16.384 68.554 16.12C68.734 15.856 68.926 15.568 69.13 15.256C69.298 14.992 69.442 14.836 69.562 14.788C69.694 14.728 69.862 14.74 70.066 14.824C70.306 14.932 70.438 15.076 70.462 15.256C70.498 15.424 70.426 15.646 70.246 15.922C70.042 16.21 69.862 16.468 69.706 16.696C69.55 16.912 69.406 17.116 69.274 17.308C69.142 17.488 69.01 17.662 68.878 17.83C68.758 17.986 68.626 18.148 68.482 18.316C68.374 18.448 68.338 18.532 68.374 18.568C68.41 18.604 68.524 18.616 68.716 18.604C68.896 18.592 69.064 18.586 69.22 18.586C69.376 18.574 69.526 18.556 69.67 18.532C69.826 18.328 69.976 18.124 70.12 17.92C70.264 17.716 70.402 17.512 70.534 17.308C70.834 16.804 71.158 16.642 71.506 16.822C71.686 16.918 71.794 17.056 71.83 17.236C71.878 17.404 71.788 17.656 71.56 17.992C71.104 18.652 70.612 19.318 70.084 19.99C69.568 20.65 69.076 21.232 68.608 21.736C68.524 21.832 68.488 21.898 68.5 21.934C68.512 21.958 68.614 21.958 68.806 21.934C68.854 21.934 68.932 21.928 69.04 21.916C69.16 21.904 69.292 21.892 69.436 21.88C69.58 21.856 69.73 21.838 69.886 21.826C70.042 21.802 70.192 21.778 70.336 21.754C70.288 21.658 70.24 21.568 70.192 21.484C70.144 21.4 70.096 21.31 70.048 21.214ZM59.41 21.502C59.266 21.274 59.206 21.094 59.23 20.962C59.266 20.83 59.362 20.716 59.518 20.62C59.65 20.524 59.806 20.5 59.986 20.548C60.178 20.584 60.358 20.728 60.526 20.98C60.742 21.328 60.928 21.67 61.084 22.006C61.24 22.33 61.402 22.684 61.57 23.068C61.618 23.212 61.624 23.392 61.588 23.608C61.564 23.812 61.474 23.95 61.318 24.022C60.898 24.202 60.586 24.04 60.382 23.536C60.346 23.452 60.31 23.374 60.274 23.302C60.238 23.218 60.208 23.134 60.184 23.05C59.596 23.134 59.038 23.206 58.51 23.266C57.982 23.314 57.466 23.362 56.962 23.41C56.626 23.446 56.374 23.41 56.206 23.302C56.038 23.182 55.954 23.008 55.954 22.78C55.954 22.516 56.074 22.246 56.314 21.97C56.662 21.586 56.98 21.226 57.268 20.89C57.568 20.542 57.844 20.212 58.096 19.9C57.928 19.924 57.76 19.936 57.592 19.936C57.436 19.936 57.262 19.942 57.07 19.954C56.77 19.966 56.524 19.906 56.332 19.774C56.14 19.642 56.044 19.456 56.044 19.216C56.044 19.084 56.068 18.946 56.116 18.802C56.164 18.646 56.248 18.502 56.368 18.37C56.584 18.118 56.788 17.872 56.98 17.632C57.172 17.392 57.358 17.152 57.538 16.912C57.718 16.66 57.898 16.402 58.078 16.138C58.258 15.874 58.45 15.586 58.654 15.274C58.822 15.01 58.966 14.854 59.086 14.806C59.206 14.758 59.368 14.776 59.572 14.86C59.812 14.968 59.944 15.106 59.968 15.274C60.004 15.442 59.932 15.664 59.752 15.94C59.548 16.228 59.368 16.48 59.212 16.696C59.056 16.912 58.912 17.11 58.78 17.29C58.648 17.47 58.516 17.638 58.384 17.794C58.264 17.95 58.132 18.112 57.988 18.28C57.88 18.412 57.844 18.496 57.88 18.532C57.916 18.568 58.03 18.58 58.222 18.568C58.402 18.556 58.564 18.55 58.708 18.55C58.864 18.538 59.014 18.52 59.158 18.496C59.302 18.292 59.434 18.1 59.554 17.92C59.686 17.728 59.818 17.542 59.95 17.362C60.238 16.87 60.556 16.708 60.904 16.876C61.084 16.972 61.192 17.11 61.228 17.29C61.276 17.458 61.186 17.71 60.958 18.046C60.502 18.706 60.01 19.372 59.482 20.044C58.954 20.716 58.456 21.304 57.988 21.808C57.904 21.904 57.874 21.964 57.898 21.988C57.922 22.012 58.03 22.012 58.222 21.988C58.318 21.988 58.504 21.976 58.78 21.952C59.056 21.916 59.332 21.88 59.608 21.844C59.572 21.784 59.536 21.73 59.5 21.682C59.464 21.622 59.434 21.562 59.41 21.502ZM64.864 22.654C64.996 22.654 65.062 22.546 65.062 22.33V20.332H62.866V22.33C62.866 22.546 62.92 22.654 63.028 22.654H64.864ZM65.062 17.2C65.062 17.032 64.996 16.948 64.864 16.948H63.028C62.92 16.948 62.866 17.032 62.866 17.2V19.108H65.062V17.2ZM61.498 27.208C61.858 27.568 61.798 27.934 61.318 28.306C60.742 28.75 60.094 29.134 59.374 29.458C58.654 29.794 57.928 30.1 57.196 30.376C56.86 30.508 56.596 30.556 56.404 30.52C56.212 30.496 56.08 30.352 56.008 30.088C55.912 29.836 55.93 29.632 56.062 29.476C56.206 29.32 56.434 29.182 56.746 29.062C57.43 28.822 58.066 28.564 58.654 28.288C59.254 28.024 59.8 27.712 60.292 27.352C60.52 27.184 60.736 27.076 60.94 27.028C61.156 26.98 61.342 27.04 61.498 27.208ZM71.812 30.034C71.668 30.262 71.494 30.376 71.29 30.376C71.098 30.376 70.864 30.292 70.588 30.124C70.228 29.908 69.91 29.716 69.634 29.548C69.358 29.392 69.088 29.248 68.824 29.116C68.56 28.996 68.278 28.876 67.978 28.756C67.69 28.636 67.354 28.504 66.97 28.36C66.622 28.216 66.406 28.084 66.322 27.964C66.25 27.844 66.262 27.664 66.358 27.424C66.538 27.016 66.94 26.95 67.564 27.226C67.972 27.394 68.332 27.544 68.644 27.676C68.968 27.808 69.274 27.94 69.562 28.072C69.85 28.204 70.132 28.336 70.408 28.468C70.696 28.612 71.002 28.78 71.326 28.972C71.866 29.296 72.028 29.65 71.812 30.034ZM89.596 29.152C89.596 29.728 89.482 30.142 89.254 30.394C89.026 30.646 88.624 30.772 88.048 30.772H75.646C75.058 30.772 74.656 30.646 74.44 30.394C74.236 30.142 74.134 29.728 74.134 29.152V16.426C74.134 15.85 74.236 15.442 74.44 15.202C74.656 14.962 75.058 14.842 75.646 14.842H88.048C88.624 14.842 89.026 14.962 89.254 15.202C89.482 15.442 89.596 15.85 89.596 16.426V29.152ZM86.698 19.09C87.118 19.09 87.328 19.294 87.328 19.702C87.328 20.062 87.118 20.242 86.698 20.242H77.284C76.864 20.242 76.654 20.062 76.654 19.702C76.654 19.294 76.864 19.09 77.284 19.09H81.352V18.28H77.968C77.548 18.28 77.338 18.088 77.338 17.704C77.338 17.32 77.548 17.128 77.968 17.128H81.352V16.606C81.352 16.45 81.382 16.336 81.442 16.264C81.502 16.192 81.58 16.138 81.676 16.102H75.646C75.55 16.102 75.502 16.18 75.502 16.336V29.224C75.502 29.404 75.55 29.494 75.646 29.494H88.03C88.15 29.494 88.21 29.404 88.21 29.224V16.336C88.21 16.18 88.15 16.102 88.03 16.102H82.396C82.564 16.162 82.648 16.33 82.648 16.606V17.128H86.266C86.674 17.128 86.878 17.32 86.878 17.704C86.878 18.088 86.674 18.28 86.266 18.28H82.648V19.09H86.698ZM78.634 24.274C78.106 24.25 77.746 24.142 77.554 23.95C77.374 23.758 77.284 23.446 77.284 23.014V22.132C77.284 21.7 77.374 21.382 77.554 21.178C77.746 20.974 78.106 20.872 78.634 20.872H85.114C85.618 20.872 85.978 20.974 86.194 21.178C86.41 21.382 86.518 21.7 86.518 22.132V23.014C86.518 23.458 86.416 23.782 86.212 23.986C86.02 24.178 85.672 24.274 85.168 24.274H81.514C81.274 24.562 81.028 24.826 80.776 25.066C80.524 25.306 80.26 25.528 79.984 25.732V27.712C79.984 27.784 80.008 27.844 80.056 27.892C80.116 27.94 80.194 27.952 80.29 27.928C80.518 27.88 80.698 27.838 80.83 27.802C80.974 27.766 81.1 27.73 81.208 27.694C81.316 27.646 81.424 27.604 81.532 27.568C81.652 27.52 81.808 27.46 82 27.388C82.24 27.292 82.426 27.244 82.558 27.244C82.702 27.244 82.822 27.328 82.918 27.496C82.966 27.592 83.002 27.682 83.026 27.766C83.05 27.838 83.044 27.91 83.008 27.982C82.984 28.054 82.93 28.126 82.846 28.198C82.762 28.27 82.636 28.354 82.468 28.45C82.192 28.582 81.856 28.696 81.46 28.792C81.064 28.9 80.626 29.002 80.146 29.098C79.942 29.134 79.75 29.152 79.57 29.152C79.402 29.152 79.252 29.122 79.12 29.062C79 29.002 78.898 28.9 78.814 28.756C78.742 28.612 78.706 28.408 78.706 28.144V26.614C78.49 26.746 78.268 26.872 78.04 26.992C77.812 27.1 77.578 27.214 77.338 27.334H77.356C77.056 27.502 76.804 27.562 76.6 27.514C76.408 27.454 76.27 27.346 76.186 27.19C76.066 26.986 76.048 26.818 76.132 26.686C76.228 26.542 76.414 26.404 76.69 26.272C77.362 25.96 77.95 25.648 78.454 25.336C78.97 25.012 79.432 24.658 79.84 24.274H78.634ZM86.698 27.838C86.89 28.006 87.004 28.18 87.04 28.36C87.076 28.54 87.028 28.696 86.896 28.828C86.704 29.02 86.53 29.092 86.374 29.044C86.218 28.996 86.05 28.888 85.87 28.72C85.558 28.444 85.264 28.192 84.988 27.964C84.724 27.724 84.448 27.496 84.16 27.28C83.872 27.064 83.572 26.854 83.26 26.65C82.948 26.434 82.6 26.206 82.216 25.966C81.976 25.798 81.826 25.654 81.766 25.534C81.718 25.414 81.76 25.252 81.892 25.048C82 24.892 82.15 24.808 82.342 24.796C82.546 24.784 82.762 24.856 82.99 25.012C83.218 25.168 83.428 25.318 83.62 25.462C83.824 25.606 84.028 25.75 84.232 25.894C84.4 25.786 84.544 25.69 84.664 25.606C84.784 25.51 84.892 25.414 84.988 25.318C85.096 25.21 85.198 25.102 85.294 24.994C85.402 24.874 85.528 24.736 85.672 24.58C85.828 24.4 85.978 24.304 86.122 24.292C86.266 24.28 86.422 24.322 86.59 24.418C86.758 24.514 86.848 24.658 86.86 24.85C86.872 25.03 86.782 25.222 86.59 25.426C86.458 25.558 86.338 25.678 86.23 25.786C86.134 25.882 86.032 25.972 85.924 26.056C85.828 26.14 85.72 26.23 85.6 26.326C85.492 26.41 85.354 26.506 85.186 26.614C85.45 26.818 85.702 27.022 85.942 27.226C86.182 27.418 86.434 27.622 86.698 27.838ZM85.258 22.186C85.258 22.078 85.198 22.024 85.078 22.024H78.706C78.598 22.024 78.544 22.078 78.544 22.186V22.96C78.544 23.02 78.562 23.068 78.598 23.104C78.634 23.128 78.67 23.14 78.706 23.14H85.078C85.198 23.14 85.258 23.08 85.258 22.96V22.186Z" fill="black"/>
<path d="M1.134 44V34.732H2.352L5.67 39.128L8.932 34.732H10.15V44H9.1V36.328L5.67 40.738L2.184 36.328V44H1.134ZM15.2973 44.112C14.588 44.112 13.9673 43.9533 13.4353 43.636C12.9033 43.3093 12.488 42.8707 12.1893 42.32C11.9 41.7693 11.7553 41.1627 11.7553 40.5C11.7553 39.828 11.8953 39.2213 12.1753 38.68C12.4553 38.1293 12.8566 37.6953 13.3793 37.378C13.902 37.0513 14.518 36.888 15.2273 36.888C15.946 36.888 16.562 37.0513 17.0753 37.378C17.598 37.6953 17.9993 38.1293 18.2793 38.68C18.5593 39.2213 18.6993 39.828 18.6993 40.5V40.92H12.8333C12.8893 41.3307 13.02 41.7087 13.2253 42.054C13.44 42.39 13.7246 42.6607 14.0793 42.866C14.434 43.062 14.8446 43.16 15.3113 43.16C15.806 43.16 16.2213 43.0527 16.5573 42.838C16.8933 42.614 17.1546 42.3293 17.3413 41.984H18.4893C18.2466 42.6093 17.8593 43.1227 17.3273 43.524C16.8046 43.916 16.128 44.112 15.2973 44.112ZM12.8473 39.94H17.6073C17.514 39.3427 17.262 38.8433 16.8513 38.442C16.4406 38.0407 15.8993 37.84 15.2273 37.84C14.5553 37.84 14.014 38.0407 13.6033 38.442C13.202 38.8433 12.95 39.3427 12.8473 39.94ZM23.0203 44.112C22.3109 44.112 21.6949 43.9533 21.1723 43.636C20.6496 43.3093 20.2483 42.8707 19.9683 42.32C19.6883 41.7693 19.5483 41.1627 19.5483 40.5C19.5483 39.828 19.6883 39.2213 19.9683 38.68C20.2483 38.1293 20.6496 37.6953 21.1723 37.378C21.6949 37.0513 22.3109 36.888 23.0203 36.888C23.7389 36.888 24.3549 37.0513 24.8683 37.378C25.3909 37.6953 25.7923 38.1293 26.0723 38.68C26.3523 39.2213 26.4923 39.828 26.4923 40.5C26.4923 41.1627 26.3523 41.7693 26.0723 42.32C25.7923 42.8707 25.3909 43.3093 24.8683 43.636C24.3549 43.9533 23.7389 44.112 23.0203 44.112ZM23.0203 43.16C23.5429 43.16 23.9816 43.0387 24.3363 42.796C24.7003 42.5533 24.9756 42.2313 25.1623 41.83C25.3489 41.4193 25.4423 40.976 25.4423 40.5C25.4423 40.0147 25.3489 39.5713 25.1623 39.17C24.9756 38.7687 24.7003 38.4467 24.3363 38.204C23.9816 37.9613 23.5429 37.84 23.0203 37.84C22.5069 37.84 22.0683 37.9613 21.7043 38.204C21.3403 38.4467 21.0649 38.7687 20.8783 39.17C20.6916 39.5713 20.5983 40.0147 20.5983 40.5C20.5983 40.976 20.6916 41.4193 20.8783 41.83C21.0649 42.2313 21.3403 42.5533 21.7043 42.796C22.0683 43.0387 22.5069 43.16 23.0203 43.16ZM29.1059 44L26.9079 37H28.0279L29.7079 42.698L31.4859 37H32.6339L34.4119 42.698L36.0919 37H37.2119L35.0139 44H33.8099L32.0599 38.414L30.3099 44H29.1059ZM41.3977 44V34.732H45.5697C46.559 34.732 47.3383 35.0027 47.9077 35.544C48.477 36.076 48.7617 36.7993 48.7617 37.714C48.7617 38.6287 48.477 39.3567 47.9077 39.898C47.3383 40.43 46.559 40.696 45.5697 40.696H42.4477V44H41.3977ZM42.4477 39.716H45.4997C46.2277 39.716 46.7783 39.5387 47.1517 39.184C47.525 38.8293 47.7117 38.3393 47.7117 37.714C47.7117 37.098 47.525 36.6127 47.1517 36.258C46.7783 35.9033 46.2277 35.726 45.4997 35.726H42.4477V39.716ZM49.9647 44V34.2H51.0147V44H49.9647ZM55.7898 44.112C55.1084 44.112 54.5111 43.9533 53.9978 43.636C53.4938 43.3093 53.1018 42.8707 52.8218 42.32C52.5418 41.7693 52.4018 41.1627 52.4018 40.5C52.4018 39.828 52.5418 39.2213 52.8218 38.68C53.1018 38.1293 53.4938 37.6953 53.9978 37.378C54.5111 37.0513 55.1084 36.888 55.7898 36.888C56.3684 36.888 56.8631 37 57.2738 37.224C57.6938 37.448 58.0344 37.7513 58.2958 38.134V37H59.3458V44H58.2958V42.88C58.0344 43.2533 57.6938 43.552 57.2738 43.776C56.8631 44 56.3684 44.112 55.7898 44.112ZM55.9298 43.16C56.4524 43.16 56.8911 43.0387 57.2458 42.796C57.6098 42.5533 57.8851 42.2313 58.0718 41.83C58.2584 41.4193 58.3518 40.976 58.3518 40.5C58.3518 40.0147 58.2584 39.5713 58.0718 39.17C57.8851 38.7687 57.6098 38.4467 57.2458 38.204C56.8911 37.9613 56.4524 37.84 55.9298 37.84C55.4164 37.84 54.9731 37.9613 54.5998 38.204C54.2264 38.4467 53.9418 38.7687 53.7458 39.17C53.5498 39.5713 53.4518 40.0147 53.4518 40.5C53.4518 40.976 53.5498 41.4193 53.7458 41.83C53.9418 42.2313 54.2264 42.5533 54.5998 42.796C54.9731 43.0387 55.4164 43.16 55.9298 43.16ZM61.162 44V37H62.212V38.092C62.464 37.756 62.772 37.4713 63.136 37.238C63.5 37.0047 63.9666 36.888 64.536 36.888C65.0213 36.888 65.474 37.0047 65.894 37.238C66.3233 37.462 66.6686 37.8027 66.93 38.26C67.2006 38.708 67.336 39.2633 67.336 39.926V44H66.286V39.954C66.286 39.3193 66.104 38.8107 65.74 38.428C65.376 38.036 64.9046 37.84 64.326 37.84C63.934 37.84 63.5793 37.9287 63.262 38.106C62.9446 38.2833 62.688 38.5353 62.492 38.862C62.3053 39.1793 62.212 39.548 62.212 39.968V44H61.162ZM72.1996 44.112C71.4903 44.112 70.8696 43.9533 70.3376 43.636C69.8056 43.3093 69.3903 42.8707 69.0916 42.32C68.8023 41.7693 68.6576 41.1627 68.6576 40.5C68.6576 39.828 68.7976 39.2213 69.0776 38.68C69.3576 38.1293 69.759 37.6953 70.2816 37.378C70.8043 37.0513 71.4203 36.888 72.1296 36.888C72.8483 36.888 73.4643 37.0513 73.9776 37.378C74.5003 37.6953 74.9016 38.1293 75.1816 38.68C75.4616 39.2213 75.6016 39.828 75.6016 40.5V40.92H69.7356C69.7916 41.3307 69.9223 41.7087 70.1276 42.054C70.3423 42.39 70.627 42.6607 70.9816 42.866C71.3363 43.062 71.747 43.16 72.2136 43.16C72.7083 43.16 73.1236 43.0527 73.4596 42.838C73.7956 42.614 74.057 42.3293 74.2436 41.984H75.3916C75.149 42.6093 74.7616 43.1227 74.2296 43.524C73.707 43.916 73.0303 44.112 72.1996 44.112ZM69.7496 39.94H74.5096C74.4163 39.3427 74.1643 38.8433 73.7536 38.442C73.343 38.0407 72.8016 37.84 72.1296 37.84C71.4576 37.84 70.9163 38.0407 70.5056 38.442C70.1043 38.8433 69.8523 39.3427 69.7496 39.94ZM77.6406 44V37.924H76.2126V37H77.6406V34.494H78.6906V37H80.3006V37.924H78.6906V44H77.6406ZM84.6555 44V34.732H88.8275C89.8168 34.732 90.5962 35.0027 91.1655 35.544C91.7348 36.076 92.0195 36.7993 92.0195 37.714C92.0195 38.6287 91.7348 39.3567 91.1655 39.898C90.5962 40.43 89.8168 40.696 88.8275 40.696H85.7055V44H84.6555ZM85.7055 39.716H88.7575C89.4855 39.716 90.0362 39.5387 90.4095 39.184C90.7828 38.8293 90.9695 38.3393 90.9695 37.714C90.9695 37.098 90.7828 36.6127 90.4095 36.258C90.0362 35.9033 89.4855 35.726 88.7575 35.726H85.7055V39.716ZM96.1765 44.112C95.4952 44.112 94.8978 43.9533 94.3845 43.636C93.8805 43.3093 93.4885 42.8707 93.2085 42.32C92.9285 41.7693 92.7885 41.1627 92.7885 40.5C92.7885 39.828 92.9285 39.2213 93.2085 38.68C93.4885 38.1293 93.8805 37.6953 94.3845 37.378C94.8978 37.0513 95.4952 36.888 96.1765 36.888C96.7552 36.888 97.2498 37 97.6605 37.224C98.0805 37.448 98.4212 37.7513 98.6825 38.134V37H99.7325V44H98.6825V42.88C98.4212 43.2533 98.0805 43.552 97.6605 43.776C97.2498 44 96.7552 44.112 96.1765 44.112ZM96.3165 43.16C96.8392 43.16 97.2778 43.0387 97.6325 42.796C97.9965 42.5533 98.2718 42.2313 98.4585 41.83C98.6452 41.4193 98.7385 40.976 98.7385 40.5C98.7385 40.0147 98.6452 39.5713 98.4585 39.17C98.2718 38.7687 97.9965 38.4467 97.6325 38.204C97.2778 37.9613 96.8392 37.84 96.3165 37.84C95.8032 37.84 95.3598 37.9613 94.9865 38.204C94.6132 38.4467 94.3285 38.7687 94.1325 39.17C93.9365 39.5713 93.8385 40.0147 93.8385 40.5C93.8385 40.976 93.9365 41.4193 94.1325 41.83C94.3285 42.2313 94.6132 42.5533 94.9865 42.796C95.3598 43.0387 95.8032 43.16 96.3165 43.16ZM101.549 44V37H102.599V38.722C102.636 38.6007 102.706 38.442 102.809 38.246C102.921 38.0407 103.079 37.8353 103.285 37.63C103.49 37.4247 103.747 37.252 104.055 37.112C104.372 36.9627 104.745 36.888 105.175 36.888H105.245V37.938H105.119C104.596 37.938 104.143 38.0827 103.761 38.372C103.387 38.652 103.098 39.0207 102.893 39.478C102.697 39.926 102.599 40.4067 102.599 40.92V44H101.549ZM109.151 44.112C108.47 44.112 107.872 43.9533 107.359 43.636C106.855 43.3093 106.463 42.8707 106.183 42.32C105.903 41.7693 105.763 41.1627 105.763 40.5C105.763 39.828 105.903 39.2213 106.183 38.68C106.463 38.1293 106.855 37.6953 107.359 37.378C107.872 37.0513 108.47 36.888 109.151 36.888C109.73 36.888 110.224 37 110.635 37.224C111.055 37.448 111.396 37.7513 111.657 38.134V37H112.707V44H111.657V42.88C111.396 43.2533 111.055 43.552 110.635 43.776C110.224 44 109.73 44.112 109.151 44.112ZM109.291 43.16C109.814 43.16 110.252 43.0387 110.607 42.796C110.971 42.5533 111.246 42.2313 111.433 41.83C111.62 41.4193 111.713 40.976 111.713 40.5C111.713 40.0147 111.62 39.5713 111.433 39.17C111.246 38.7687 110.971 38.4467 110.607 38.204C110.252 37.9613 109.814 37.84 109.291 37.84C108.778 37.84 108.334 37.9613 107.961 38.204C107.588 38.4467 107.303 38.7687 107.107 39.17C106.911 39.5713 106.813 40.0147 106.813 40.5C106.813 40.976 106.911 41.4193 107.107 41.83C107.303 42.2313 107.588 42.5533 107.961 42.796C108.334 43.0387 108.778 43.16 109.291 43.16ZM117.477 44.112C116.796 44.112 116.199 43.9533 115.685 43.636C115.181 43.3093 114.789 42.8707 114.509 42.32C114.229 41.7693 114.089 41.1627 114.089 40.5C114.089 39.828 114.229 39.2213 114.509 38.68C114.789 38.1293 115.181 37.6953 115.685 37.378C116.199 37.0513 116.796 36.888 117.477 36.888C118.056 36.888 118.551 37 118.961 37.224C119.381 37.448 119.722 37.7513 119.983 38.134V34.2H121.033V44H119.983V42.88C119.722 43.2533 119.381 43.552 118.961 43.776C118.551 44 118.056 44.112 117.477 44.112ZM117.617 43.16C118.14 43.16 118.579 43.0387 118.933 42.796C119.297 42.5533 119.573 42.2313 119.759 41.83C119.946 41.4193 120.039 40.976 120.039 40.5C120.039 40.0147 119.946 39.5713 119.759 39.17C119.573 38.7687 119.297 38.4467 118.933 38.204C118.579 37.9613 118.14 37.84 117.617 37.84C117.104 37.84 116.661 37.9613 116.287 38.204C115.914 38.4467 115.629 38.7687 115.433 39.17C115.237 39.5713 115.139 40.0147 115.139 40.5C115.139 40.976 115.237 41.4193 115.433 41.83C115.629 42.2313 115.914 42.5533 116.287 42.796C116.661 43.0387 117.104 43.16 117.617 43.16ZM122.807 35.824V34.452H123.941V35.824H122.807ZM122.849 44V37H123.899V44H122.849ZM128.269 44.112C127.625 44.112 127.079 44.0047 126.631 43.79C126.192 43.5753 125.856 43.2953 125.623 42.95C125.389 42.5953 125.259 42.2127 125.231 41.802H126.323C126.351 42.0353 126.43 42.264 126.561 42.488C126.701 42.7027 126.911 42.88 127.191 43.02C127.471 43.1507 127.835 43.216 128.283 43.216C128.423 43.216 128.595 43.202 128.801 43.174C129.006 43.146 129.202 43.0947 129.389 43.02C129.585 42.9453 129.748 42.8333 129.879 42.684C130.009 42.5347 130.075 42.3433 130.075 42.11C130.075 41.8207 129.963 41.5967 129.739 41.438C129.515 41.2793 129.225 41.158 128.871 41.074C128.516 40.9807 128.138 40.892 127.737 40.808C127.345 40.724 126.971 40.6167 126.617 40.486C126.262 40.346 125.973 40.1547 125.749 39.912C125.525 39.66 125.413 39.3193 125.413 38.89C125.413 38.2553 125.641 37.7653 126.099 37.42C126.565 37.0653 127.251 36.888 128.157 36.888C128.773 36.888 129.272 36.986 129.655 37.182C130.047 37.3687 130.341 37.6113 130.537 37.91C130.742 38.2087 130.863 38.5307 130.901 38.876H129.837C129.799 38.5773 129.65 38.3207 129.389 38.106C129.137 37.8913 128.717 37.784 128.129 37.784C127.018 37.784 126.463 38.12 126.463 38.792C126.463 39.072 126.575 39.2867 126.799 39.436C127.023 39.5853 127.312 39.7067 127.667 39.8C128.021 39.884 128.395 39.968 128.787 40.052C129.188 40.1267 129.566 40.234 129.921 40.374C130.275 40.514 130.565 40.7147 130.789 40.976C131.013 41.228 131.125 41.5733 131.125 42.012C131.125 42.6933 130.863 43.216 130.341 43.58C129.827 43.9347 129.137 44.112 128.269 44.112ZM135.582 44.112C134.873 44.112 134.252 43.9533 133.72 43.636C133.188 43.3093 132.773 42.8707 132.474 42.32C132.185 41.7693 132.04 41.1627 132.04 40.5C132.04 39.828 132.18 39.2213 132.46 38.68C132.74 38.1293 133.142 37.6953 133.664 37.378C134.187 37.0513 134.803 36.888 135.512 36.888C136.231 36.888 136.847 37.0513 137.36 37.378C137.883 37.6953 138.284 38.1293 138.564 38.68C138.844 39.2213 138.984 39.828 138.984 40.5V40.92H133.118C133.174 41.3307 133.305 41.7087 133.51 42.054C133.725 42.39 134.01 42.6607 134.364 42.866C134.719 43.062 135.13 43.16 135.596 43.16C136.091 43.16 136.506 43.0527 136.842 42.838C137.178 42.614 137.44 42.3293 137.626 41.984H138.774C138.532 42.6093 138.144 43.1227 137.612 43.524C137.09 43.916 136.413 44.112 135.582 44.112ZM133.132 39.94H137.892C137.799 39.3427 137.547 38.8433 137.136 38.442C136.726 38.0407 136.184 37.84 135.512 37.84C134.84 37.84 134.299 38.0407 133.888 38.442C133.487 38.8433 133.235 39.3427 133.132 39.94Z" fill="black"/>
</g>
<defs>
<clipPath id="clip0_7_395">
<rect width="140" height="51" fill="white"/>
</clipPath>
</defs>
</svg>
